<svg width="21" height="20" viewBox="0 0 21 20" xmlns="http://www.w3.org/2000/svg">
<path fill-rule="evenodd" clip-rule="evenodd" d="M12.334 0C11.5383 0 10.7753 0.316071 10.2127 0.87868C9.65005 1.44129 9.33398 2.20435 9.33398 3H5.33398C4.80355 3 4.29484 3.21071 3.91977 3.58579C3.5447 3.96086 3.33398 4.46957 3.33398 5V8C2.53833 8 1.77527 8.31607 1.21266 8.87868C0.650055 9.44129 0.333984 10.2044 0.333984 11C0.333984 11.7956 0.650055 12.5587 1.21266 13.1213C1.77527 13.6839 2.53833 14 3.33398 14V18C3.33398 18.5304 3.5447 19.0391 3.91977 19.4142C4.29484 19.7893 4.80355 20 5.33398 20H8.58398C9.04811 20 9.49323 19.8156 9.82142 19.4874C10.1496 19.1592 10.334 18.7141 10.334 18.25C10.334 17.56 10.894 17 11.584 17H13.084C13.774 17 14.334 17.56 14.334 18.25C14.334 19.216 15.118 20 16.084 20H18.334C18.8644 20 19.3731 19.7893 19.7482 19.4142C20.1233 19.0391 20.334 18.5304 20.334 18V14.75C20.334 14.2859 20.1496 13.8408 19.8214 13.5126C19.4932 13.1844 19.0481 13 18.584 13C17.894 13 17.334 12.44 17.334 11.75V10.25C17.334 9.56 17.894 9 18.584 9C19.0481 9 19.4932 8.81563 19.8214 8.48744C20.1496 8.15925 20.334 7.71413 20.334 7.25V5C20.334 4.46957 20.1233 3.96086 19.7482 3.58579C19.3731 3.21071 18.8644 3 18.334 3H15.334C15.334 2.20435 15.0179 1.44129 14.4553 0.87868C13.8927 0.316071 13.1296 0 12.334 0Z"/>
</svg>
