<svg width="37" height="33" viewBox="0 0 37 33" xmlns="http://www.w3.org/2000/svg">
<path fill-rule="evenodd" clip-rule="evenodd" d="M36.581 10.1842C38.2722 5.34692 34.6363 0.306611 29.4013 0.231294L13.3874 0.000880393C8.71873 -0.0662938 5.45336 3.72116 5.55567 7.73281L10.0205 4.66315C11.2366 3.827 12.9169 4.11166 13.7734 5.29896C14.6298 6.48624 14.3382 8.12656 13.1221 8.96276L7.61679 12.7477L7.61693 12.7479L1.14277 17.1991C-0.0734 18.0352 -0.364987 19.6755 0.491493 20.8629C1.34334 22.0437 3.01006 22.3317 4.22461 21.5121L12.1719 16.0481C13.388 15.212 15.0683 15.4967 15.9248 16.684C16.7812 17.8713 16.4897 19.5116 15.2735 20.3478L13.8201 21.347V21.3471L3.82269 28.2205C2.60651 29.0567 2.31493 30.6971 3.17141 31.8843C4.02789 33.0717 5.70812 33.3563 6.92426 32.5202L16.9217 25.6467V25.6468L22.4269 21.8618C23.6431 21.0257 25.3233 21.3103 26.1797 22.4977C27.0362 23.6849 26.7446 25.3252 25.5285 26.1614L20.8453 29.3812C24.7513 31.1578 29.8375 29.4722 31.4076 24.9814L36.581 10.1842Z" fill="#FF341D"/>
</svg>
