<svg width="30" height="30" viewBox="0 0 30 30" fill="none" xmlns="http://www.w3.org/2000/svg">
<path d="M15 13.1282H10.8M15 8.58008V13.1282V8.58008ZM15 13.1282V17.6763V13.1282ZM15 13.1282H19.2H15Z" stroke="#424242" stroke-width="2" stroke-linecap="round"/>
<path d="M17.8 25.2565C23.0794 25.2565 25.7198 25.2565 27.3592 23.4797C29 21.7044 29 18.8452 29 13.1283C29 7.4113 29 4.55206 27.3592 2.77679C25.7198 1 23.0794 1 17.8 1H12.2C6.9206 1 4.2802 1 2.6408 2.77679C1 4.55206 1 7.4113 1 13.1283C1 18.8452 1 21.7044 2.6408 23.4797C3.555 24.4712 4.78 24.9093 6.6 25.1019" stroke="#424242" stroke-width="2" stroke-linecap="round" stroke-linejoin="round"/>
<path d="M17.7999 25.2565C16.0695 25.2565 14.1627 26.0145 12.4225 26.9923C9.62535 28.5645 8.22675 29.3513 7.53795 28.8495C6.84915 28.3492 6.97935 26.7952 7.24115 23.6889L7.29995 22.9824" stroke="#424242" stroke-width="2" stroke-linecap="round"/>
</svg>
