<svg width="24" height="24" viewBox="0 0 24 24" fill="none" xmlns="http://www.w3.org/2000/svg">
<path d="M6.5 17.5H3.75C3.02065 17.5 2.32118 17.2103 1.80546 16.6945C1.28973 16.1788 1 15.4793 1 14.75V3.75C1 3.02065 1.28973 2.32118 1.80546 1.80546C2.32118 1.28973 3.02065 1 3.75 1H14.75C15.4793 1 16.1788 1.28973 16.6945 1.80546C17.2103 2.32118 17.5 3.02065 17.5 3.75V6.5L6.5 17.5ZM9.25 23H20.25C20.9793 23 21.6788 22.7103 22.1945 22.1945C22.7103 21.6788 23 20.9793 23 20.25V9.25C23 8.52065 22.7103 7.82118 22.1945 7.30546C21.6788 6.78973 20.9793 6.5 20.25 6.5H9.25C8.52065 6.5 7.82118 6.78973 7.30546 7.30546C6.78973 7.82118 6.5 8.52065 6.5 9.25V20.25C6.5 20.9793 6.78973 21.6788 7.30546 22.1945C7.82118 22.7103 8.52065 23 9.25 23Z" stroke-width="2" stroke-linecap="round" stroke-linejoin="round"/>
</svg>
