<svg width="22" height="23" viewBox="0 0 22 23" xmlns="http://www.w3.org/2000/svg">
<path d="M17.482 22.6304C16.8798 22.6374 16.2843 22.5049 15.7418 22.2434C15.1994 21.9819 14.7248 21.5984 14.3553 21.123C13.9857 20.6476 13.7311 20.0931 13.6115 19.5029C13.4919 18.9127 13.5104 18.3029 13.6657 17.7211L6.60403 13.6849C6.00832 14.2306 5.25929 14.5801 4.45836 14.6861C3.65742 14.792 2.84327 14.6493 2.12615 14.2772C1.40903 13.9051 0.823575 13.3216 0.449063 12.6058C0.0745507 11.8899 -0.0709281 11.0762 0.032325 10.2749C0.135578 9.47365 0.482575 8.72345 1.02633 8.12591C1.57009 7.52837 2.28434 7.11236 3.07236 6.93422C3.86039 6.75607 4.68413 6.82439 5.43204 7.12992C6.17995 7.43545 6.8159 7.96344 7.25379 8.6424L13.6646 4.97731C13.5817 4.66391 13.5377 4.34148 13.5337 4.01732C13.5259 3.1016 13.8338 2.21113 14.4057 1.49587C14.9775 0.780604 15.7784 0.28423 16.6734 0.0903231C17.5684 -0.103583 18.5029 0.0168224 19.3195 0.431267C20.1361 0.845711 20.7849 1.52888 21.1568 2.36574C21.5287 3.2026 21.6008 4.14204 21.3611 5.02587C21.1214 5.9097 20.5845 6.68394 19.8407 7.21822C19.097 7.7525 18.1918 8.01419 17.2777 7.95923C16.3636 7.90427 15.4964 7.536 14.822 6.91645L7.88438 10.8816C7.87648 11.1749 7.83588 11.4648 7.76142 11.748L14.8231 15.7831C15.2958 15.3493 15.8671 15.0374 16.4876 14.8745C17.108 14.7116 17.7589 14.7025 18.3837 14.8481C19.0084 14.9937 19.5882 15.2896 20.0728 15.71C20.5573 16.1304 20.9319 16.6627 21.1641 17.2607C21.3963 17.8587 21.4791 18.5044 21.4053 19.1416C21.3314 19.7788 21.1032 20.3885 20.7404 20.9175C20.3776 21.4466 19.8912 21.8791 19.3234 22.1776C18.7556 22.4761 18.1235 22.6315 17.482 22.6304ZM17.482 16.9901C17.0332 16.9901 16.6028 17.1684 16.2855 17.4857C15.9681 17.803 15.7899 18.2334 15.7899 18.6822C15.7899 19.131 15.9681 19.5614 16.2855 19.8787C16.6028 20.196 17.0332 20.3743 17.482 20.3743C17.9307 20.3743 18.3611 20.196 18.6785 19.8787C18.9958 19.5614 19.1741 19.131 19.1741 18.6822C19.1741 18.2334 18.9958 17.803 18.6785 17.4857C18.3611 17.1684 17.9307 16.9901 17.482 16.9901ZM3.94517 9.09362C3.4964 9.09362 3.06601 9.2719 2.74868 9.58923C2.43135 9.90656 2.25307 10.3369 2.25307 10.7857C2.25307 11.2345 2.43135 11.6649 2.74868 11.9822C3.06601 12.2995 3.4964 12.4778 3.94517 12.4778C4.39395 12.4778 4.82434 12.2995 5.14167 11.9822C5.459 11.6649 5.63727 11.2345 5.63727 10.7857C5.63727 10.3369 5.459 9.90656 5.14167 9.58923C4.82434 9.2719 4.39395 9.09362 3.94517 9.09362ZM17.482 2.32522C17.2598 2.32522 17.0397 2.36899 16.8344 2.45403C16.6291 2.53906 16.4426 2.6637 16.2855 2.82083C16.1284 2.97795 16.0037 3.16449 15.9187 3.36978C15.8336 3.57508 15.7899 3.79511 15.7899 4.01732C15.7899 4.23953 15.8336 4.45957 15.9187 4.66486C16.0037 4.87016 16.1284 5.05669 16.2855 5.21382C16.4426 5.37094 16.6291 5.49558 16.8344 5.58062C17.0397 5.66566 17.2598 5.70942 17.482 5.70942C17.9307 5.70942 18.3611 5.53115 18.6785 5.21382C18.9958 4.89649 19.1741 4.4661 19.1741 4.01732C19.1741 3.56855 18.9958 3.13816 18.6785 2.82083C18.3611 2.5035 17.9307 2.32522 17.482 2.32522Z"/>
</svg>
