<svg width="23" height="22" viewBox="0 0 23 22" xmlns="http://www.w3.org/2000/svg">
<path d="M11.334 0C5.26858 0 0.333984 4.9346 0.333984 11V15.5573C0.333984 16.6837 1.32068 17.6 2.53398 17.6H3.63398C3.92572 17.6 4.20551 17.4841 4.4118 17.2778C4.61809 17.0715 4.73398 16.7917 4.73398 16.5V10.8427C4.73398 10.551 4.61809 10.2712 4.4118 10.0649C4.20551 9.85859 3.92572 9.7427 3.63398 9.7427H2.63518C3.24678 5.4857 6.90978 2.2 11.334 2.2C15.7582 2.2 19.4212 5.4857 20.0328 9.7427H19.034C18.7422 9.7427 18.4625 9.85859 18.2562 10.0649C18.0499 10.2712 17.934 10.551 17.934 10.8427V17.6C17.934 18.8133 16.9473 19.8 15.734 19.8H13.534V18.7H9.13398V22H15.734C18.1606 22 20.134 20.0266 20.134 17.6C21.3473 17.6 22.334 16.6837 22.334 15.5573V11C22.334 4.9346 17.3994 0 11.334 0Z"/>
</svg>
