<svg width="14" height="13" viewBox="0 0 14 13" fill="none" xmlns="http://www.w3.org/2000/svg">
<path fill-rule="evenodd" clip-rule="evenodd" d="M0.5 0.5C0.367392 0.5 0.240215 0.552678 0.146447 0.646447C0.0526784 0.740215 0 0.867392 0 1V5.8C0 6.1283 0.0646644 6.45339 0.190301 6.75671C0.315938 7.06002 0.500087 7.33562 0.732233 7.56777C1.20107 8.03661 1.83696 8.3 2.5 8.3H12.293L8.946 11.646C8.85211 11.7399 8.79937 11.8672 8.79937 12C8.79937 12.1328 8.85211 12.2601 8.946 12.354C9.03989 12.4479 9.16722 12.5006 9.3 12.5006C9.43278 12.5006 9.56011 12.4479 9.654 12.354L13.854 8.154C13.9006 8.10755 13.9375 8.05238 13.9627 7.99163C13.9879 7.93089 14.0009 7.86577 14.0009 7.8C14.0009 7.73423 13.9879 7.66911 13.9627 7.60837C13.9375 7.54762 13.9006 7.49245 13.854 7.446L9.854 3.446C9.76011 3.35211 9.63278 3.29937 9.5 3.29937C9.36722 3.29937 9.23989 3.35211 9.146 3.446C9.05211 3.53989 8.99937 3.66722 8.99937 3.8C8.99937 3.93278 9.05211 4.06011 9.146 4.154L12.293 7.3H2.5C2.10218 7.3 1.72064 7.14196 1.43934 6.86066C1.15804 6.57936 1 6.19782 1 5.8V1C1 0.867392 0.947322 0.740215 0.853553 0.646447C0.759785 0.552678 0.632608 0.5 0.5 0.5Z" fill="#424242"/>
</svg>
