<svg width="21" height="16" viewBox="0 0 21 16" fill="none" xmlns="http://www.w3.org/2000/svg">
<path d="M0.612509 1.03649C0.528368 1.19826 0.489868 1.37989 0.501144 1.56188C0.512421 1.74387 0.573042 1.91935 0.676508 2.06949L9.67651 15.0695C9.76854 15.2023 9.89139 15.3109 10.0346 15.3859C10.1777 15.4608 10.3369 15.5 10.4985 15.5C10.6601 15.5 10.8193 15.4608 10.9625 15.3859C11.1056 15.3109 11.2285 15.2023 11.3205 15.0695L20.3205 2.06949C20.4251 1.91963 20.4864 1.74395 20.498 1.56159C20.5096 1.37923 20.4708 1.1972 20.386 1.03535C20.3012 0.87349 20.1736 0.73802 20.0171 0.643707C19.8606 0.549393 19.6812 0.499855 19.4985 0.500494L1.49851 0.500494C1.31597 0.500464 1.13691 0.550397 0.980726 0.644882C0.824545 0.739366 0.697206 0.874796 0.612509 1.03649ZM17.5895 2.50049L10.4985 12.7435L3.40751 2.50049L17.5895 2.50049Z" fill="#424242"/>
</svg>
