<svg width="25" height="25" viewBox="0 0 25 25" fill="none" xmlns="http://www.w3.org/2000/svg">
<path d="M1 5.6H24M10.2 11.35V17.1M14.8 11.35V17.1M3.3 5.6H21.7L19.883 21.953C19.8207 22.5158 19.553 23.0358 19.1312 23.4135C18.7094 23.7912 18.163 24 17.5968 24H7.4032C6.83698 24 6.29065 23.7912 5.86881 23.4135C5.44697 23.0358 5.17928 22.5158 5.117 21.953L3.3 5.6ZM7.14675 2.31905C7.33277 1.92456 7.62711 1.5911 7.99546 1.35755C8.3638 1.124 8.79096 0.999995 9.2271 1H15.7729C16.2092 0.999777 16.6366 1.12368 17.0052 1.35724C17.3738 1.5908 17.6683 1.92439 17.8544 2.31905L19.4 5.6H5.6L7.14675 2.31905Z" stroke-width="2" stroke-linecap="round" stroke-linejoin="round"/>
</svg>
