<svg width="22" height="22" viewBox="0 0 22 22" xmlns="http://www.w3.org/2000/svg">
<path d="M13.0638 22H8.9369C8.67833 22 8.4275 21.9143 8.22603 21.7571C8.02456 21.5998 7.88455 21.3805 7.82922 21.1354L7.36777 19.063C6.75221 18.8013 6.16852 18.4741 5.62745 18.0873L3.54473 18.7308C3.29821 18.8071 3.03221 18.7992 2.79091 18.7086C2.54962 18.6179 2.34754 18.45 2.21823 18.2325L0.150247 14.7664C0.022297 14.5487 -0.0257324 14.2954 0.0140172 14.0478C0.0537667 13.8002 0.178942 13.5731 0.369063 13.4035L1.98467 11.9735C1.9112 11.3257 1.9112 10.6721 1.98467 10.0243L0.369063 8.5976C0.178672 8.42795 0.0533272 8.20058 0.0135712 7.95276C-0.0261849 7.70494 0.0220067 7.45137 0.150247 7.2336L2.21369 3.7653C2.343 3.54785 2.54508 3.37985 2.78638 3.28921C3.02768 3.19856 3.29367 3.19073 3.54019 3.267L5.62292 3.9105C5.89955 3.7125 6.18753 3.5277 6.48457 3.3605C6.77142 3.2043 7.06619 3.0624 7.36777 2.9359L7.83035 0.8657C7.88542 0.620617 8.02517 0.401157 8.22643 0.243704C8.42768 0.0862508 8.67836 0.000263963 8.9369 0H13.0638C13.3223 0.000263963 13.573 0.0862508 13.7743 0.243704C13.9755 0.401157 14.1153 0.620617 14.1703 0.8657L14.6375 2.937C15.2522 3.20019 15.8358 3.52734 16.3778 3.9127L18.4616 3.2692C18.708 3.19321 18.9737 3.20119 19.2148 3.29182C19.4559 3.38245 19.6577 3.55028 19.787 3.7675L21.8504 7.2358C22.1135 7.6835 22.0228 8.25 21.6316 8.5987L20.016 10.0287C20.0895 10.6765 20.0895 11.3301 20.016 11.9779L21.6316 13.4079C22.0228 13.7577 22.1135 14.3231 21.8504 14.7708L19.787 18.2391C19.6577 18.4566 19.4556 18.6246 19.2143 18.7152C18.973 18.8058 18.707 18.8137 18.4605 18.7374L16.3778 18.0939C15.8371 18.4804 15.2538 18.8073 14.6386 19.0685L14.1703 21.1354C14.1151 21.3803 13.9752 21.5995 13.774 21.7567C13.5727 21.914 13.3222 21.9998 13.0638 22ZM10.9958 6.6C9.79304 6.6 8.63954 7.06357 7.78905 7.88873C6.93856 8.71389 6.46076 9.83305 6.46076 11C6.46076 12.167 6.93856 13.2861 7.78905 14.1113C8.63954 14.9364 9.79304 15.4 10.9958 15.4C12.1986 15.4 13.3521 14.9364 14.2026 14.1113C15.0531 13.2861 15.5309 12.167 15.5309 11C15.5309 9.83305 15.0531 8.71389 14.2026 7.88873C13.3521 7.06357 12.1986 6.6 10.9958 6.6Z"/>
</svg>
