<svg width="25" height="24" viewBox="0 0 25 24" xmlns="http://www.w3.org/2000/svg">
<path fill-rule="evenodd" clip-rule="evenodd" d="M11.0349 2.79923C11.3974 2.4883 11.8593 2.31738 12.3369 2.31738C12.8145 2.31738 13.2763 2.4883 13.6389 2.79923L19.9749 8.22923L22.4619 10.2192C22.5644 10.3013 22.6498 10.4028 22.7132 10.5179C22.7765 10.6329 22.8166 10.7594 22.8311 10.8899C22.8455 11.0205 22.8342 11.1526 22.7976 11.2788C22.761 11.4049 22.6999 11.5227 22.6179 11.6252C22.5358 11.7278 22.4343 11.8132 22.3192 11.8765C22.2042 11.9399 22.0777 11.9799 21.9472 11.9944C21.8166 12.0089 21.6845 11.9975 21.5583 11.961C21.4322 11.9244 21.3144 11.8633 21.2119 11.7812L20.3369 11.0812V19.0002C20.3369 19.5307 20.1262 20.0394 19.7511 20.4144C19.376 20.7895 18.8673 21.0002 18.3369 21.0002H14.3369V16.0002C14.3369 15.4698 14.1262 14.9611 13.7511 14.586C13.376 14.2109 12.8673 14.0002 12.3369 14.0002C11.8064 14.0002 11.2977 14.2109 10.9227 14.586C10.5476 14.9611 10.3369 15.4698 10.3369 16.0002V21.0002H6.33687C5.80643 21.0002 5.29773 20.7895 4.92265 20.4144C4.54758 20.0394 4.33687 19.5307 4.33687 19.0002V11.0802L3.46187 11.7802C3.36 11.8672 3.2417 11.9328 3.11398 11.9732C2.98626 12.0136 2.85173 12.0279 2.71838 12.0153C2.58502 12.0027 2.45556 11.9634 2.33767 11.8998C2.21979 11.8362 2.11588 11.7496 2.03212 11.6451C1.94836 11.5405 1.88645 11.4202 1.85008 11.2913C1.8137 11.1624 1.8036 11.0275 1.82036 10.8946C1.83713 10.7617 1.88042 10.6335 1.94768 10.5177C2.01493 10.4018 2.10477 10.3007 2.21187 10.2202L4.69887 8.23023L11.0349 2.79923Z"/>
</svg>
