<svg width="23" height="21" viewBox="0 0 23 21" xmlns="http://www.w3.org/2000/svg">
<path d="M15.3333 15.3338L10.2222 20.4449H23V15.3338H15.3333ZM11.5767 4.0766L0 15.6533V20.4449H4.79167L16.3683 8.86827L11.5767 4.0766ZM3.73111 17.8894H2.55556V16.7138L11.5767 7.69271L12.7522 8.86827L3.73111 17.8894ZM20.0739 5.16271C20.1923 5.0445 20.2863 4.90409 20.3504 4.74951C20.4146 4.59493 20.4476 4.42923 20.4476 4.26188C20.4476 4.09453 20.4146 3.92882 20.3504 3.77425C20.2863 3.61967 20.1923 3.47926 20.0739 3.36105L17.0839 0.371045C16.8443 0.133368 16.5205 0 16.1831 0C15.8456 0 15.5218 0.133368 15.2822 0.371045L12.9439 2.70938L17.7356 7.50105L20.0739 5.16271Z"/>
</svg>
