<svg width="25" height="24" viewBox="0 0 25 24" xmlns="http://www.w3.org/2000/svg">
<path fill-rule="evenodd" clip-rule="evenodd" d="M3.33691 19C3.33691 19.7956 3.65298 20.5587 4.21559 21.1213C4.7782 21.6839 5.54126 22 6.33691 22H18.3369C19.1326 22 19.8956 21.6839 20.4582 21.1213C21.0208 20.5587 21.3369 19.7956 21.3369 19V8.828C21.3365 8.03276 21.0203 7.27023 20.4579 6.708L16.6299 2.878C16.0673 2.31572 15.3044 1.9999 14.5089 2H6.33691C5.54126 2 4.7782 2.31607 4.21559 2.87868C3.65298 3.44129 3.33691 4.20435 3.33691 5V19ZM8.33691 12C8.0717 12 7.81734 12.1054 7.62981 12.2929C7.44227 12.4804 7.33691 12.7348 7.33691 13C7.33691 13.2652 7.44227 13.5196 7.62981 13.7071C7.81734 13.8946 8.0717 14 8.33691 14H16.3369C16.6021 14 16.8565 13.8946 17.044 13.7071C17.2316 13.5196 17.3369 13.2652 17.3369 13C17.3369 12.7348 17.2316 12.4804 17.044 12.2929C16.8565 12.1054 16.6021 12 16.3369 12H8.33691ZM8.33691 16C8.0717 16 7.81734 16.1054 7.62981 16.2929C7.44227 16.4804 7.33691 16.7348 7.33691 17C7.33691 17.2652 7.44227 17.5196 7.62981 17.7071C7.81734 17.8946 8.0717 18 8.33691 18H12.3369C12.6021 18 12.8565 17.8946 13.044 17.7071C13.2316 17.5196 13.3369 17.2652 13.3369 17C13.3369 16.7348 13.2316 16.4804 13.044 16.2929C12.8565 16.1054 12.6021 16 12.3369 16H8.33691Z"/>
</svg>
